<svg width="40" height="40" viewBox="0 0 40 40" fill="none" xmlns="http://www.w3.org/2000/svg">
<path d="M20.0085 8.51453C20.0496 8.51456 20.0901 8.52979 20.1248 8.56433C20.1595 8.59909 20.1755 8.64035 20.1755 8.68152V30.9188L30.8689 20.2255C30.9331 20.1613 31.0332 20.1613 31.0974 20.2255C31.1616 20.2897 31.1616 20.3898 31.0974 20.454L20.114 31.4374C20.0498 31.5013 19.9496 31.5015 19.8855 31.4374L8.9021 20.454C8.83808 20.3899 8.83821 20.2897 8.9021 20.2255C8.93139 20.1962 8.97295 20.1766 9.02515 20.1766C9.07731 20.1767 9.11892 20.1962 9.14819 20.2255L19.8416 30.9188V8.68152C19.8416 8.64035 19.8576 8.59909 19.8923 8.56433C19.927 8.52985 19.9675 8.51453 20.0085 8.51453Z" fill="#0B1215" stroke="white" stroke-width="3"/>
</svg>
