<svg width="34" height="34" viewBox="0 0 34 34" fill="none" xmlns="http://www.w3.org/2000/svg">
<path d="M16.667 1.5C25.0384 1.50018 31.833 8.29553 31.833 16.667C31.8328 25.0383 25.0383 31.8328 16.667 31.833C8.29553 31.833 1.50018 25.0384 1.5 16.667C1.5 8.29542 8.29542 1.5 16.667 1.5ZM26.123 7.43945L7.43945 26.123L6.24316 27.3184L7.57324 28.3633C10.0787 30.3306 13.2368 31.5 16.667 31.5C24.8618 31.4998 31.4998 24.8618 31.5 16.667C31.5 13.2368 30.3306 10.0787 28.3633 7.57324L27.3184 6.24316L26.123 7.43945ZM16.667 1.83301C8.4719 1.83301 1.83301 8.4719 1.83301 16.667C1.83308 20.0971 3.00349 23.2544 4.9707 25.7598L6.01465 27.0898L27.0898 6.01465L25.7598 4.9707C23.2544 3.00349 20.0971 1.83308 16.667 1.83301Z" fill="#0B1215" stroke="#F5DEDA" stroke-width="3"/>
</svg>
