<svg width="72" height="72" viewBox="0 0 72 72" fill="none" xmlns="http://www.w3.org/2000/svg">
<rect width="72" height="72" rx="36" fill="#F45C39"/>
<path d="M36 29.3334C36 29.3334 36 29.3334 34.7333 27.6667C33.2667 25.7334 31.1 24.3334 28.5 24.3334C24.35 24.3334 21 27.6834 21 31.8334C21 33.3834 21.4667 34.8167 22.2667 36C23.6167 38.0167 36 51 36 51M36 29.3334C36 29.3334 36 29.3334 37.2667 27.6667C38.7333 25.7334 40.9 24.3334 43.5 24.3334C47.65 24.3334 51 27.6834 51 31.8334C51 33.3834 50.5333 34.8167 49.7333 36C48.3833 38.0167 36 51 36 51" stroke="#F5DEDA" stroke-width="3" stroke-linecap="round" stroke-linejoin="round"/>
</svg>
