<svg width="72" height="72" viewBox="0 0 72 72" fill="none" xmlns="http://www.w3.org/2000/svg">
<rect width="72" height="72" rx="36" fill="#F45C39"/>
<path d="M36 21C44.2833 21 51 27.7167 51 36C51 44.2833 44.2833 51 36 51C27.7167 51 21 44.2833 21 36C21 27.7167 27.7167 21 36 21Z" stroke="#F5DEDA" stroke-width="3" stroke-linecap="round" stroke-linejoin="round"/>
<path d="M31 31V32.6667" stroke="#F5DEDA" stroke-width="3.33333" stroke-linecap="round" stroke-linejoin="round" stroke-dasharray="6.67 6.67"/>
<path d="M41 31V32.6667" stroke="#F5DEDA" stroke-width="3.33333" stroke-linecap="round" stroke-linejoin="round" stroke-dasharray="6.67 6.67"/>
<path d="M42.6665 39.1665C42.7075 39.1665 42.748 39.1818 42.7827 39.2163C42.8175 39.2511 42.8335 39.2923 42.8335 39.3335C42.8335 39.3055 42.7952 39.6322 42.4976 40.2573C42.2287 40.8219 41.8107 41.4942 41.2368 42.1343C40.1002 43.4019 38.3987 44.4995 35.9995 44.4995C33.6003 44.4994 31.8988 43.402 30.7622 42.1343C30.1884 41.4942 29.7713 40.8219 29.5024 40.2573C29.2047 39.6322 29.1665 39.3055 29.1665 39.3335C29.1665 39.2923 29.1816 39.2511 29.2163 39.2163C29.2511 39.1816 29.2923 39.1665 29.3335 39.1665C29.3452 39.1677 29.4383 39.18 29.7163 39.3013C29.87 39.3683 30.0324 39.4468 30.2544 39.5513C30.4665 39.6511 30.7139 39.7658 30.9907 39.8823C32.1379 40.3653 33.6895 40.8335 35.9995 40.8335C38.3097 40.8335 39.862 40.3654 41.0093 39.8823C41.286 39.7658 41.5335 39.6511 41.7456 39.5513C41.9675 39.4469 42.1301 39.3683 42.2837 39.3013C42.6016 39.1626 42.6775 39.1665 42.6665 39.1665Z" fill="#F5DEDA" stroke="#F5DEDA" stroke-width="3"/>
</svg>
