<svg width="40" height="40" viewBox="0 0 40 40" fill="none" xmlns="http://www.w3.org/2000/svg">
<path d="M4.89673 18.2338C7.99661 18.4965 10.868 19.5342 13.3313 21.1537L13.3186 21.1722C13.3384 21.1875 13.3595 21.2007 13.3792 21.2152V21.2162C13.3844 21.2198 13.3905 21.2233 13.3958 21.2269C13.5444 21.3356 13.6827 21.4246 13.7844 21.4867C13.9167 21.5675 13.9784 21.6042 14.0393 21.6459C15.8801 22.9677 17.4808 24.6451 18.7454 26.5726L20.0002 28.4857L21.2542 26.5726C24.3046 21.9189 29.3236 18.7269 35.1018 18.2347C34.4905 25.7547 29.5227 31.9845 22.7952 34.3978C21.88 34.7124 20.9538 34.9594 19.9905 35.142C19.0352 34.9732 18.1111 34.729 17.2307 34.4076L17.2219 34.4047L16.553 34.1498C10.1578 31.577 5.48778 25.5092 4.89673 18.2338ZM32.554 18.9574C30.4758 19.4496 28.4965 20.3227 26.7209 21.5004L25.6145 22.2338L25.6438 22.2933C24.0587 23.5242 22.665 25.0313 21.5295 26.7592L21.5286 26.7611L20.0022 29.0912L18.4729 26.7474C17.5405 25.3016 16.4167 24.017 15.137 22.9086L15.3352 22.8099L13.1077 21.3861C11.3541 20.2653 9.44799 19.4475 7.44458 18.974L5.1145 18.4222L5.63599 20.7601C6.99438 26.8457 11.3591 31.9444 17.3342 34.0912V34.0922C18.0923 34.3695 18.8817 34.5894 19.6829 34.7533L19.9963 34.8168L20.3088 34.7474C21.1053 34.5704 21.8921 34.3562 22.6838 34.0863L22.6946 34.0824L22.7053 34.0795C28.6577 31.9497 33.0067 26.8436 34.3645 20.7426L34.884 18.4056L32.554 18.9574ZM14.8987 21.8998H14.8762C14.8679 21.8996 14.8587 21.8991 14.8499 21.8988C14.8325 21.8982 14.8139 21.8973 14.7942 21.8959C14.7548 21.8931 14.7074 21.8889 14.6555 21.8802C14.5758 21.8669 14.4593 21.839 14.3254 21.7826L14.8987 20.6351C14.8986 21.8235 14.8993 21.8954 14.8987 21.8998ZM20.0969 5.54822C22.4686 8.36518 23.8379 11.7322 24.2356 15.2201C22.7307 16.1075 21.3106 17.1493 20.0042 18.3412C18.701 17.1442 17.2838 16.1041 15.7815 15.225C16.2467 11.7631 17.6812 8.39196 20.0969 5.54822ZM18.8167 7.84607C17.6175 9.73572 16.7838 11.8223 16.3313 13.9945L16.1223 14.9965L16.9807 15.556C17.7017 16.0262 18.41 16.5461 19.0725 17.0824L20.0188 17.849L20.9631 17.0804C21.6498 16.5215 22.3359 16.0084 23.0569 15.5482L23.9143 15.0004L23.7229 14.0013C23.3066 11.8292 22.5092 9.74218 21.3625 7.86755L20.1067 5.81384L18.8167 7.84607Z" fill="#0B1215" stroke="#F5DEDA" stroke-width="3"/>
</svg>
