<svg width="40" height="40" viewBox="0 0 40 40" fill="none" xmlns="http://www.w3.org/2000/svg">
<mask id="path-1-inside-1_363_538" fill="white">
<path d="M32.7477 15.491L24.681 14.791L21.531 7.37432C20.9643 6.02432 19.031 6.02432 18.4643 7.37432L15.3143 14.8077L7.26435 15.491C5.79768 15.6077 5.19768 17.441 6.31435 18.4077L12.431 23.7077L10.5977 31.5743C10.2643 33.0077 11.8143 34.141 13.081 33.3743L19.9977 29.2077L26.9143 33.391C28.181 34.1577 29.731 33.0243 29.3977 31.591L27.5643 23.7077L33.681 18.4077C34.7977 17.441 34.2143 15.6077 32.7477 15.491ZM19.9977 26.091L13.731 29.8743L15.3977 22.741L9.86435 17.941L17.1643 17.3077L19.9977 10.591L22.8477 17.3243L30.1477 17.9577L24.6143 22.7576L26.281 29.891L19.9977 26.091Z"/>
</mask>
<path d="M32.7477 15.491L24.681 14.791L21.531 7.37432C20.9643 6.02432 19.031 6.02432 18.4643 7.37432L15.3143 14.8077L7.26435 15.491C5.79768 15.6077 5.19768 17.441 6.31435 18.4077L12.431 23.7077L10.5977 31.5743C10.2643 33.0077 11.8143 34.141 13.081 33.3743L19.9977 29.2077L26.9143 33.391C28.181 34.1577 29.731 33.0243 29.3977 31.591L27.5643 23.7077L33.681 18.4077C34.7977 17.441 34.2143 15.6077 32.7477 15.491ZM19.9977 26.091L13.731 29.8743L15.3977 22.741L9.86435 17.941L17.1643 17.3077L19.9977 10.591L22.8477 17.3243L30.1477 17.9577L24.6143 22.7576L26.281 29.891L19.9977 26.091Z" fill="#0B1215"/>
<path d="M32.7477 15.491L32.4883 18.4798L32.4991 18.4807L32.5098 18.4815L32.7477 15.491ZM24.681 14.791L21.9197 15.9637L22.6248 17.6238L24.4217 17.7798L24.681 14.791ZM21.531 7.37432L18.7648 8.53544L18.7697 8.54708L21.531 7.37432ZM18.4643 7.37432L21.2266 8.54486L21.2305 8.53543L18.4643 7.37432ZM15.3143 14.8077L15.5681 17.7969L17.3707 17.6439L18.0766 15.9782L15.3143 14.8077ZM7.26435 15.491L7.50223 18.4815L7.51016 18.4809L7.51809 18.4802L7.26435 15.491ZM6.31435 18.4076L8.2789 16.1404L8.27785 16.1395L6.31435 18.4076ZM12.431 23.7077L15.3527 24.3886L15.7636 22.6257L14.3956 21.4404L12.431 23.7077ZM10.5977 31.5743L7.67597 30.8934L7.67566 30.8948L10.5977 31.5743ZM13.081 33.3743L11.533 30.8046L11.5276 30.8078L13.081 33.3743ZM19.9977 29.2077L21.5503 26.6406L20.0008 25.7035L18.4496 26.6379L19.9977 29.2077ZM26.9143 33.391L28.4678 30.8245L28.4669 30.824L26.9143 33.391ZM29.3977 31.591L26.4757 32.2705L26.4757 32.2705L29.3977 31.591ZM27.5643 23.7077L25.5998 21.4404L24.2325 22.6251L24.6423 24.3872L27.5643 23.7077ZM33.681 18.4076L31.7175 16.1395L31.7165 16.1404L33.681 18.4076ZM19.9977 26.091L21.5502 23.5239L19.999 22.5858L18.4472 23.5227L19.9977 26.091ZM13.731 29.8743L10.8097 29.1918L9.19105 36.1195L15.2815 32.4426L13.731 29.8743ZM15.3977 22.741L18.319 23.4235L18.7308 21.6609L17.3635 20.4748L15.3977 22.741ZM9.86435 17.941L9.60505 14.9522L2.54667 15.5646L7.89852 20.2071L9.86435 17.941ZM17.1643 17.3077L17.4236 20.2964L19.2255 20.1401L19.9285 18.4737L17.1643 17.3077ZM19.9977 10.591L22.7604 9.42162L19.993 2.88345L17.2335 9.42497L19.9977 10.591ZM22.8477 17.3243L20.085 18.4937L20.789 20.157L22.5884 20.3131L22.8477 17.3243ZM30.1477 17.9577L32.1135 20.2238L37.4654 15.5812L30.407 14.9689L30.1477 17.9577ZM24.6143 22.7577L22.6485 20.4915L21.2812 21.6776L21.693 23.4402L24.6143 22.7577ZM26.281 29.891L24.7285 32.458L30.8227 36.1437L29.2023 29.2084L26.281 29.891ZM32.7477 15.491L33.007 12.5022L24.9404 11.8022L24.681 14.791L24.4217 17.7798L32.4883 18.4798L32.7477 15.491ZM24.681 14.791L27.4423 13.6182L24.2923 6.20155L21.531 7.37432L18.7697 8.54708L21.9197 15.9637L24.681 14.791ZM21.531 7.37432L24.2972 6.2132C22.7014 2.41136 17.294 2.41136 15.6982 6.2132L18.4643 7.37432L21.2305 8.53543C20.768 9.63728 19.2273 9.63728 18.7648 8.53543L21.531 7.37432ZM18.4643 7.37432L15.7021 6.20378L12.5521 13.6371L15.3143 14.8077L18.0766 15.9782L21.2266 8.54485L18.4643 7.37432ZM15.3143 14.8077L15.0606 11.8184L7.0106 12.5017L7.26435 15.491L7.51809 18.4802L15.5681 17.7969L15.3143 14.8077ZM7.26435 15.491L7.02646 12.5004C2.88926 12.8295 1.23457 17.9782 4.35084 20.6758L6.31435 18.4076L8.27785 16.1395C9.16079 16.9038 8.70609 18.3858 7.50223 18.4815L7.26435 15.491ZM6.31435 18.4076L4.34979 20.6749L10.4665 25.9749L12.431 23.7077L14.3956 21.4404L8.2789 16.1404L6.31435 18.4076ZM12.431 23.7077L9.50931 23.0267L7.67597 30.8934L10.5977 31.5743L13.5194 32.2552L15.3527 24.3886L12.431 23.7077ZM10.5977 31.5743L7.67566 30.8948C6.74405 34.9007 11.0855 38.0889 14.6344 35.9408L13.081 33.3743L11.5276 30.8078C12.5432 30.1931 13.7846 31.1146 13.5197 32.2539L10.5977 31.5743ZM13.081 33.3743L14.6291 35.9441L21.5457 31.7774L19.9977 29.2077L18.4496 26.6379L11.533 30.8046L13.081 33.3743ZM19.9977 29.2077L18.4451 31.7747L25.3618 35.958L26.9143 33.391L28.4669 30.824L21.5503 26.6406L19.9977 29.2077ZM26.9143 33.391L25.3609 35.9575C28.9099 38.1055 33.2513 34.9173 32.3197 30.9114L29.3977 31.591L26.4757 32.2705C26.2107 31.1313 27.4521 30.2098 28.4678 30.8245L26.9143 33.391ZM29.3977 31.591L32.3197 30.9114L30.4864 23.0281L27.5643 23.7077L24.6423 24.3872L26.4757 32.2705L29.3977 31.591ZM27.5643 23.7077L29.5289 25.9749L35.6456 20.6749L33.681 18.4076L31.7165 16.1404L25.5998 21.4404L27.5643 23.7077ZM33.681 18.4076L35.6445 20.6758C38.7109 18.0213 37.1883 12.8347 32.9856 12.5004L32.7477 15.491L32.5098 18.4815C31.2404 18.3806 30.8844 16.8606 31.7175 16.1395L33.681 18.4076ZM19.9977 26.091L18.4472 23.5227L12.1805 27.3061L13.731 29.8743L15.2815 32.4426L21.5482 28.6592L19.9977 26.091ZM13.731 29.8743L16.6523 30.5569L18.319 23.4235L15.3977 22.741L12.4764 22.0584L10.8097 29.1918L13.731 29.8743ZM15.3977 22.741L17.3635 20.4748L11.8302 15.6748L9.86435 17.941L7.89852 20.2071L13.4318 25.0072L15.3977 22.741ZM9.86435 17.941L10.1236 20.9298L17.4236 20.2964L17.1643 17.3077L16.905 14.3189L9.60505 14.9522L9.86435 17.941ZM17.1643 17.3077L19.9285 18.4737L22.7618 11.757L19.9977 10.591L17.2335 9.42497L14.4002 16.1416L17.1643 17.3077ZM19.9977 10.591L17.235 11.7603L20.085 18.4937L22.8477 17.3243L25.6104 16.155L22.7604 9.42162L19.9977 10.591ZM22.8477 17.3243L22.5884 20.3131L29.8884 20.9464L30.1477 17.9577L30.407 14.9689L23.107 14.3355L22.8477 17.3243ZM30.1477 17.9577L28.1818 15.6915L22.6485 20.4915L24.6143 22.7577L26.5802 25.0238L32.1135 20.2238L30.1477 17.9577ZM24.6143 22.7577L21.693 23.4402L23.3597 30.5735L26.281 29.891L29.2023 29.2084L27.5357 22.0751L24.6143 22.7577ZM26.281 29.891L27.8335 27.3239L21.5502 23.5239L19.9977 26.091L18.4452 28.658L24.7285 32.458L26.281 29.891Z" fill="#F5DEDA" mask="url(#path-1-inside-1_363_538)"/>
</svg>
