<svg width="336" height="60" viewBox="0 0 336 60" fill="none" xmlns="http://www.w3.org/2000/svg">
<path d="M336 1.40039V36.2117C336 49.3591 317.749 59.1496 293.417 59.1496C281.903 59.1496 271.518 56.8159 262.532 53.7427V40.8758C270.58 44.8864 281.064 46.9363 293.417 46.9363C310.449 46.9363 323.272 42.3645 323.272 36.2117V34.1288C320.794 35.5647 318.064 36.7101 315.177 37.565C303.491 41.0079 290.047 41.0244 278.38 37.5518C267.22 34.5447 257.273 25.2923 257.608 13.1945V1.40039H270.411C270.408 5.94573 270.408 12.9667 270.415 13.1351C271.058 26.3915 287.132 27.3421 297.543 27.3421C307.954 27.3421 322.633 25.7082 323.193 13.1351C323.2 12.9667 323.2 5.94573 323.196 1.40039H336Z" fill="#F5DEDA"/>
<path d="M187.267 20.2558C187.267 24.1905 203.893 24.9681 212.657 25.0939C230.549 25.2759 250.601 25.5969 250.601 38.8967C250.601 50.6312 234.021 59.1492 211.174 59.1492C199.014 59.1492 183.342 55.8598 173.914 51.3262L173.601 51.1739V37.2222L174.456 37.7815C182.107 42.7685 197.547 46.3888 211.174 46.3888C226.102 46.3888 236.934 43.2351 236.934 38.8934C236.934 34.9455 220.308 35.2929 211.547 35.1672C193.653 34.9852 173.601 33.5589 173.601 20.2525C173.601 8.51795 190.181 0 213.027 0C225.187 0 240.859 3.28937 250.287 7.82302L250.601 7.97525V21.927L249.745 21.3677C242.094 16.384 226.651 12.7637 213.027 12.7637C198.102 12.7637 187.267 15.9141 187.267 20.2525" fill="#F5DEDA"/>
<path d="M85.4004 38.9596C85.4004 27.9299 98.8235 19.7065 116.63 19.7065C130.241 19.7065 144.968 24.8457 151.123 27.9332V22.6153C151.123 16.4469 138.35 12.2442 121.386 12.2442C109.082 12.2442 98.6387 14.2992 90.6218 18.3199V5.42052C99.5695 2.33632 109.92 0 121.386 0C145.625 0 163.801 9.43461 163.801 22.6153V59.1492H151.123V49.9892C144.971 53.0734 130.241 59.1492 116.63 59.1492C98.8235 59.1492 85.4004 49.9892 85.4004 38.9596ZM116.63 46.9977C127.35 46.9977 143.103 42.977 151.123 38.9596C142.172 34.9389 127.35 31.8547 116.63 31.8547C105.91 31.8547 98.543 34.9389 98.543 38.9596C98.543 42.9803 106.279 46.9977 116.63 46.9977Z" fill="#F5DEDA"/>
<path d="M78.4002 1.40039V36.2117C78.4002 49.3591 60.1491 59.1496 35.8177 59.1496C24.3032 59.1496 13.9185 56.8159 4.93214 53.7427V40.8758C12.9808 44.8864 23.4648 46.9363 35.8177 46.9363C52.8494 46.9363 65.6728 42.3645 65.6728 36.2117V34.1288C63.1943 35.5647 60.4639 36.7101 57.5778 37.565C45.8909 41.0079 32.4479 41.0244 20.7809 37.5518C9.62082 34.5447 -0.326459 25.2923 0.0082094 13.1945V1.40039H12.8118C12.8085 5.94573 12.8085 12.9667 12.8151 13.1351C13.4579 26.3915 29.5319 27.3421 39.9431 27.3421C50.3543 27.3421 65.0333 25.7082 65.5933 13.1351C65.5999 12.9667 65.5999 5.94573 65.5966 1.40039H78.4002Z" fill="#F5DEDA"/>
</svg>
